{"title":"Alain Tanner - Jonas qui aura 25 ans en l'an 2000 AKA Jonah Who","uid":7053204,"size":1487346051,"categoryP":"video","categoryS":"movies","magnet":"?xt=urn:btih:751ba505d26a666b3e10baf0fb98c5acb2745be1&amp;dn=Alain+Tanner+-+Jonas+qui+aura+25+ans+en+l%5C%27an+2000+AKA+Jonah+Who&amp;tr=udp%3A%2F%2Ftracker.openbittorrent.com%3A80&amp;tr=udp%3A%2F%2Fopen.demonii.com%3A1337&amp;tr=udp%3A%2F%2Ftracker.coppersurfer.tk%3A6969&amp;tr=udp%3A%2F%2Fexodus.desync.com%3A6969","seeders":5,"leechers":0,"uploader":"Aaaameida","files":-1,"time":1330016421,"description":"The European equivalent of &quot;The Return of the Secaucus 7,&quot; this Swiss film looks at the lives of several men and women in their 30s as they confront the slim gains of the &quot;revolutionary&quot; sixties. Max, a dissatisfied copy editor; Myriam, a redhead into tantric sex; and Marie, a supermarket checker who gives unauthorized discounts to the elderly, search for renewed meaning on a communal farm. The title character, a six-year-old child, is the carrier of their hopes for the future. \n\nScreenshots:\n &lt;a href=&quot;\nhttp://img688.imageshack.us/img688/7310/bscap0018my.jpg&quot; rel=&quot;nofollow&quot; target=&quot;_NEW&quot;&gt;\nhttp://img688.imageshack.us/img688/7310/bscap0018my.jpg&lt;/a&gt; &lt;a href=&quot;\nhttp://img692.imageshack.us/img692/1002/bscap0019kd.jpg&quot; rel=&quot;nofollow&quot; target=&quot;_NEW&quot;&gt;\nhttp://img692.imageshack.us/img692/1002/bscap0019kd.jpg&lt;/a&gt; &lt;a href=&quot;\nhttp://img703.imageshack.us/img703/3218/bscap0021t.jpg&quot; rel=&quot;nofollow&quot; target=&quot;_NEW&quot;&gt;\nhttp://img703.imageshack.us/img703/3218/bscap0021t.jpg&lt;/a&gt; &lt;a href=&quot;\nhttp://img585.imageshack.us/img585/3293/bscap0015k.jpg&quot; rel=&quot;nofollow&quot; target=&quot;_NEW&quot;&gt;\nhttp://img585.imageshack.us/img585/3293/bscap0015k.jpg&lt;/a&gt;\n\nwww.imdb.com/title/tt0074718/\n\n\n      Format : AVI\n      Format/Info : Audio Video Interleave\n      File size : 1.38 GiB\n      Duration : 1h 50mn\n      Overall bit rate : 1 792 Kbps\n      Writing application : FairUse Wizard - http://fairusewizard.com\n      Writing library : The best and REALLY easy backup tool\n   Video #0\n      ID : 0\n      Format : MPEG-4 Visual\n      Format profile : AdvancedSimple@L5\n      Format settings, BVOP : Yes\n      Format settings, QPel : No\n      Format settings, GMC : No warppoints\n      Format settings, Matrix : Default (MPEG)\n      Muxing mode : Packed bitstream\n      Codec ID : XVID\n      Codec ID/Hint : XviD\n      Duration : 1h 50mn\n      Bit rate : 1 590 Kbps\n      Width : 688 pixels\n      Height : 432 pixels\n      Display aspect ratio : 1.593\n      Frame rate : 25.000 fps\n      Resolution : 24 bits\n      Colorimetry : 4:2:0\n      Scan type : Progressive\n      Bits/(Pixel*Frame) : 0.214\n      Stream size : 1.23 GiB (89%)\n      Writing library : XviD 1.2.0.dev47 (UTC 2006-11-01)\n   Audio #1\n      ID : 1\n      Format : MPEG Audio\n      Format version : Version 1\n      Format profile : Layer 3\n      Codec ID : 55\n      Codec ID/Hint : MP3\n      Duration : 1h 50mn\n      Bit rate mode : Constant\n      Bit rate : 192 Kbps\n      Channel(s) : 2 channels\n      Sampling rate : 48.0 KHz\n      Resolution : 16 bits\n      Stream size : 152 MiB (11%)\n      Alignment : Aligned on interleaves\n      Interleave, duration : 40 ms (1.00 video frame)\n      Interleave, preload duration : 504 ms","torrent":{"xt":"urn:btih:751ba505d26a666b3e10baf0fb98c5acb2745be1","amp;dn":"Alain+Tanner+-+Jonas+qui+aura+25+ans+en+l%5C%27an+2000+AKA+Jonah+Who","amp;tr":["udp%3A%2F%2Ftracker.openbittorrent.com%3A80","udp%3A%2F%2Fopen.demonii.com%3A1337","udp%3A%2F%2Ftracker.coppersurfer.tk%3A6969","udp%3A%2F%2Fexodus.desync.com%3A6969"],"infoHash":"751ba505d26a666b3e10baf0fb98c5acb2745be1","infoHashBuffer":{"type":"Buffer","data":[117,27,165,5,210,106,102,107,62,16,186,240,251,152,197,172,178,116,91,225]},"announce":[],"urlList":[]}}